<svg width="18" height="20" viewBox="0 0 18 20" fill="none" xmlns="http://www.w3.org/2000/svg">
<path d="M2.76811 10.1406L4.66654 9.44918C4.72514 9.42578 4.79545 9.41406 4.86572 9.41406H17.0298C17.3579 9.41406 17.6157 9.67184 17.6157 10V18.2422C17.6157 19.2148 16.8306 20 15.8579 20H4.13916C3.16646 20 2.38135 19.2148 2.38135 18.2422V10.6914C2.38135 10.4453 2.53373 10.2227 2.76811 10.1406Z" fill="#FC1A40"/>
<path d="M2.38135 10.6914V18.2422C2.38135 19.2148 3.16646 20 4.13916 20H9.99854V9.41406H4.86572C4.79541 9.41406 4.7251 9.42578 4.66654 9.44918L2.76811 10.1406C2.53373 10.2227 2.38135 10.4453 2.38135 10.6914Z" fill="#C60034"/>
<path d="M2.5921 3.81984C2.79128 3.01124 3.38898 2.37847 4.19757 2.12062C4.99445 1.87449 5.84996 2.05031 6.47101 2.61277L7.83043 3.80812L8.09992 2.01519C8.22882 1.19488 8.75617 0.50343 9.54128 0.175344C9.69363 0.116712 9.84597 0.0698366 9.99831 0.0463991C10.6428 -0.0825072 11.3108 0.0581178 11.8499 0.456594C12.5648 0.972219 12.928 1.83941 12.8109 2.70656C12.6819 3.57374 12.096 4.31202 11.264 4.60499L9.99831 5.06202L8.43972 5.63624C8.428 5.63624 8.428 5.63624 8.428 5.63624L5.72097 6.6323C5.45148 6.72609 5.17023 6.773 4.9007 6.773C4.3264 6.773 3.76394 6.56199 3.31863 6.16359C2.66242 5.57765 2.38117 4.67527 2.5921 3.81984Z" fill="#FE9923"/>
<path d="M3.31885 6.16361C3.76416 6.56201 4.32666 6.77303 4.90092 6.77303C5.17041 6.77303 5.45166 6.72611 5.72119 6.63232L8.42822 5.63627C8.42822 5.63627 8.42822 5.63627 8.43994 5.63627L9.99854 5.06205V0.0463867C9.84619 0.0698633 9.69385 0.116699 9.5415 0.175332C8.75639 0.503418 8.229 1.19486 8.10014 2.01518L7.83064 3.80811L6.47123 2.61275C5.85018 2.05029 4.99467 1.87447 4.19779 2.12061C3.3892 2.37846 2.79154 3.01123 2.59232 3.81982C2.38135 4.67529 2.6626 5.57768 3.31885 6.16361Z" fill="#FE8821"/>
<path d="M0.377337 9.14444L1.17421 11.3476C1.268 11.5819 1.49066 11.7226 1.72503 11.7226C1.79534 11.7226 1.86566 11.7108 1.92421 11.6875L7.98284 9.48433L8.53359 7.66792L9.99843 7.99601L11.2875 8.28897L17.3461 6.08585C17.6508 5.9687 17.8031 5.62882 17.6976 5.33585L16.8891 3.1328C16.7367 2.68749 16.4085 2.33585 15.9867 2.13667C15.5648 1.93749 15.0844 1.91401 14.6391 2.07808L9.99839 3.76558L9.68194 3.88273C9.68194 3.88273 8.41636 6.17964 8.38116 6.17964C8.35769 6.17964 7.85382 5.89839 7.36163 5.62882C6.86956 5.35929 6.37734 5.07808 6.37734 5.07808L1.43206 6.88272C0.98675 7.04679 0.635187 7.37495 0.436008 7.79683C0.236712 8.21866 0.213312 8.69917 0.377337 9.14444Z" fill="#FF3E75"/>
<path d="M0.377441 9.14443L1.17432 11.3476C1.26811 11.5819 1.49076 11.7226 1.72514 11.7226C1.79545 11.7226 1.86576 11.7108 1.92432 11.6874L7.98295 9.48431L8.53369 7.66791L9.99854 7.99599V3.76556L9.68209 3.88271C9.68209 3.88271 8.4165 6.17963 8.38131 6.17963C8.35783 6.17963 7.85396 5.89838 7.36178 5.62881C6.86967 5.35928 6.37744 5.07806 6.37744 5.07806L1.43217 6.88271C0.986856 7.04677 0.635293 7.37494 0.436113 7.79681C0.236816 8.21865 0.213418 8.69916 0.377441 9.14443Z" fill="#FC1A40"/>
<path d="M11.7563 9.41406V20H8.24072V9.41406H11.7563Z" fill="#FCBF29"/>
<path d="M9.68213 3.88275L9.99857 4.74994L11.2876 8.28904L9.99857 8.75783L8.53373 9.28517L7.98299 9.48435L6.37744 5.0781L9.68213 3.88275Z" fill="#FCBF29"/>
<path d="M8.24072 9.41406H9.99854V20H8.24072V9.41406Z" fill="#FE9923"/>
<path d="M6.37744 5.0781L7.98295 9.48435L8.53369 9.28513L9.99854 8.75779V4.74994L9.68213 3.88275L6.37744 5.0781Z" fill="#FE9923"/>
</svg>
